# xmcd
#
# Track frame offsets:
#	150
#	18543
#	32821
#	52041
#	69707
#	85951
#	109349
#	128680
#	148701
#	164958
#	183607
#	203744
#	224155
#	242986
#	264095
#	277779
#	297603
#
# Disc length: 4226 seconds
#
# Revision: 1
# Processed by: cddbd v1.5.2PL0 Copyright (c) Steve Scherf et al.
# Submitted via: audiograbber 1.83.01
#
DISCID=18108011
DTITLE=Joan Osborne - Breakfast in Bed
DYEAR=2007
DGENRE=
TTITLE0=I've Got to Use My Imagination
TTITLE1=Ain't No Sunshine
TTITLE2=Midnight Train to Georgia
TTITLE3=Baby Is a Butterfly
TTITLE4=Breakfast in Bed
TTITLE5=Cream Dream
TTITLE6=Natural High
TTITLE7=Heart of Stone
TTITLE8=Sara Smile
TTITLE9=Eliminate the Night
TTITLE10=Break Up to Make Up
TTITLE11=I Know What's Goin' On
TTITLE12=Alone with You
TTITLE13=Kiss and Say Goodbye
TTITLE14=Heat Wave
TTITLE15=What Becomes of the Brokenhearted
TTITLE16=Everybody Needs a Friend
EXTD=Border's Version
EXTT0=
EXTT1=
EXTT2=
EXTT3=
EXTT4=
EXTT5=
EXTT6=
EXTT7=
EXTT8=
EXTT9=
EXTT10=
EXTT11=
EXTT12=
EXTT13=
EXTT14=
EXTT15=
EXTT16=
PLAYORDER=
